<mxfile host="app.diagrams.net" modified="2024-09-29T13:33:52.623Z" agent="Mozilla/5.0 (Windows NT 10.0; Win64; x64) AppleWebKit/537.36 (KHTML, like Gecko) Chrome/122.0.6261.95 Safari/537.36" version="24.3.0" etag="hjdnm4BWxMe4lMPGiVmb" type="github">
  <diagram name="第 1 页" id="Uylg_I4k-pkb3LkqYRIv">
    <mxGraphModel>
      <root>
        <mxCell id="0" />
        <mxCell id="1" parent="0" />
      </root>
    </mxGraphModel>
  </diagram>
</mxfile>
